<?xml version="1.0" standalone="no"?><!DOCTYPE svg PUBLIC "-//W3C//DTD SVG 1.1//EN" "http://www.w3.org/Graphics/SVG/1.1/DTD/svg11.dtd"><svg t="1742352914329" class="icon" viewBox="0 0 1024 1024" version="1.1" xmlns="http://www.w3.org/2000/svg" p-id="10460" xmlns:xlink="http://www.w3.org/1999/xlink" width="200" height="200"><path d="M512 512m-512 0a512 512 0 1 0 1024 0 512 512 0 1 0-1024 0Z" fill="#1296db" p-id="10461" data-spm-anchor-id="a313x.search_index.0.i5.68fc3a81qr8E1Y" class="selected"></path><path d="M691.328 571.264l94.848 82.176c32.96 29.312 52.16 86.272 23.424 120.064-33.92 40.832-94.784 24.768-127.808-4.48L586.304 693.76c-1.792-1.6-3.712-0.384-5.44-0.192a238.72 238.72 0 0 1-113.984 28.8c-134.848 0-244.288-111.872-244.288-249.92 0-137.984 109.44-249.92 244.288-249.92 134.912 0 244.288 112 244.288 249.92 0 35.072-7.04 68.48-19.84 98.752zM276.864 472.512c0 107.392 85.12 194.432 190.016 194.432 104.96 0 190.016-87.04 190.016-194.432 0-107.328-85.12-194.368-190.08-194.368-104.832 0-189.952 87.04-189.952 194.368z m221.952-116.544a21.76 21.76 0 0 1 21.76 21.76v223.808a21.76 21.76 0 0 1-21.76 21.76H377.92a21.76 21.76 0 0 1-21.76-21.76V377.728a21.76 21.76 0 0 1 21.76-21.76h120.96zM438.4 578.368a8.96 8.96 0 0 0 9.088-9.152 9.088 9.088 0 0 0-9.088-9.152 9.088 9.088 0 0 0-9.152 9.152c0 5.12 4.032 9.152 9.152 9.152z m0-26.56c5.056 0 9.28-4.16 9.088-9.088a9.088 9.088 0 0 0-9.088-9.152 9.088 9.088 0 0 0-9.152 9.152c0 5.056 4.032 9.088 9.152 9.088z m0-26.368a17.344 17.344 0 1 0 0-34.816 17.472 17.472 0 0 0-17.408 17.408c0 9.6 7.808 17.408 17.408 17.408z m-56.576-62.336h113.088v-26.944H381.824v26.88z m0-45.952h113.088v-27.008H381.824v27.008z m7.552-5.952v-14.912h97.92v14.912h-97.92z m0 46.4v-14.976h97.92v14.976h-97.92z m159.936-123.712c10.688 0 19.584 8.704 19.584 19.584v201.6c0 10.816-8.896 19.52-19.584 19.52h-20.16V430.464h16.512v-25.92h-16.256c0.192-8.128 0-6.848 0-15.552h16.256v-18.688a20.544 20.544 0 0 0-20.608-20.608H420.992V349.44c0-10.88 8.832-15.552 19.584-15.552h108.736z" fill="#FFFFFF" p-id="10462"></path></svg>