<?xml version="1.0" standalone="no"?><!DOCTYPE svg PUBLIC "-//W3C//DTD SVG 1.1//EN" "http://www.w3.org/Graphics/SVG/1.1/DTD/svg11.dtd"><svg t="1741753875084" class="icon" viewBox="0 0 1024 1024" version="1.1" xmlns="http://www.w3.org/2000/svg" p-id="11884" xmlns:xlink="http://www.w3.org/1999/xlink" width="200" height="200"><path d="M512 66.56c-245.76 0-445.44 199.68-445.44 445.44s199.68 445.44 445.44 445.44 445.44-199.68 445.44-445.44-199.68-445.44-445.44-445.44z m229.376 630.784c-12.288 12.288-29.184 18.944-46.592 18.944-36.352 0-66.048-28.672-66.048-64.512 0-7.168 1.536-14.336 4.096-20.992l-71.168-35.84c-17.92 24.064-46.592 37.888-76.288 37.888-20.48 0-40.96-6.656-57.344-18.944l-35.328 17.92c2.048 6.144 3.584 12.8 3.584 19.456 0 17.408-7.168 33.792-19.456 45.568-12.288 12.288-29.184 18.944-46.592 18.944-36.352 0-66.048-28.672-66.048-64.512 0-17.408 7.168-33.792 19.456-45.568 12.288-12.288 29.184-18.944 46.592-18.944 21.504 0 41.984 10.24 54.272 27.648l28.672-14.336C398.336 583.68 389.12 563.2 389.12 539.648c0-48.128 37.376-87.04 85.504-92.16V384.512c-31.744-4.608-56.32-31.232-56.32-63.488 0-17.408 7.168-33.792 19.456-45.568 12.288-12.288 29.184-18.944 46.592-18.944 36.352 0 66.048 28.672 66.048 64.512 0 31.744-24.064 58.88-56.32 63.488v63.488c24.576 2.56 47.104 13.824 62.976 32.256l44.544-17.92c-5.12-19.968 0-41.472 13.824-56.832 23.552-27.136 65.536-30.72 93.184-7.68 13.312 10.752 21.504 26.624 23.04 44.032 1.536 16.896-4.096 34.304-15.36 47.104-23.552 27.136-65.536 30.72-93.184 7.68-5.632-4.608-10.24-10.24-13.824-16.384l-40.96 16.384c7.68 13.312 11.776 28.16 11.776 43.52 0 13.312-3.072 26.624-9.216 38.912l70.144 35.328c12.8-16.896 32.256-26.624 53.76-26.624 17.408 0 34.304 6.656 46.592 18.944 12.288 11.776 19.456 28.672 19.456 45.568 0 16.384-7.168 32.768-19.456 45.056z" p-id="11885"></path></svg>