<?xml version="1.0" standalone="no"?><!DOCTYPE svg PUBLIC "-//W3C//DTD SVG 1.1//EN" "http://www.w3.org/Graphics/SVG/1.1/DTD/svg11.dtd"><svg t="1742784849007" class="icon" viewBox="0 0 1024 1024" version="1.1" xmlns="http://www.w3.org/2000/svg" p-id="13884" xmlns:xlink="http://www.w3.org/1999/xlink" width="200" height="200"><path d="M512 128c-188.587 0-341.333 76.373-341.333 170.667S323.413 469.333 512 469.333s341.333-76.373 341.333-170.666S700.587 128 512 128" p-id="13885" data-spm-anchor-id="a313x.search_index.0.i1.590f3a81CIzgdB" class="selected" fill="#8d780d"></path><path d="M170.667 384v128c0 94.293 152.746 170.667 341.333 170.667S853.333 606.293 853.333 512V384c0 94.293-152.746 170.667-341.333 170.667S170.667 478.293 170.667 384" p-id="13886" data-spm-anchor-id="a313x.search_index.0.i0.590f3a81CIzgdB" class="selected" fill="#8d780d"></path><path d="M170.667 597.333v128C170.667 819.627 323.413 896 512 896s341.333-76.373 341.333-170.667v-128C853.333 691.627 700.587 768 512 768s-341.333-76.373-341.333-170.667z" p-id="13887" data-spm-anchor-id="a313x.search_index.0.i2.590f3a81CIzgdB" class="selected" fill="#8d780d"></path></svg>