<?xml version="1.0" standalone="no"?><!DOCTYPE svg PUBLIC "-//W3C//DTD SVG 1.1//EN" "http://www.w3.org/Graphics/SVG/1.1/DTD/svg11.dtd"><svg t="1742542280807" class="icon" viewBox="0 0 1040 1024" version="1.1" xmlns="http://www.w3.org/2000/svg" p-id="8441" xmlns:xlink="http://www.w3.org/1999/xlink" width="203.125" height="200"><path d="M1016.246154 512c0 278.449231-225.673846 504.123077-504.123077 504.123077S8 790.449231 8 512 233.673846 7.876923 512.123077 7.876923s504.123077 225.673846 504.123077 504.123077" fill="#1afa29" p-id="8442" data-spm-anchor-id="a313x.search_index.0.i3.12603a81BX5hXO" class="selected"></path><path d="M615.310769 587.421538l33.421785-33.413907 80.368246 80.368246-33.421785 33.421785z" fill="#FFFFFF" p-id="8443"></path><path d="M653.907692 693.248l100.667077-100.667077V693.169231z" fill="#FFFFFF" p-id="8444"></path><path d="M677.538462 805.257846c-31.271385 0-62.148923-8.113231-89.245539-23.473231a180.491815 180.491815 0 0 1-89.324308-126.976 181.720615 181.720615 0 0 1-2.599384-30.72c0-44.740923 16.462769-87.748923 46.395077-120.989538 34.343385-38.203077 83.495385-60.179692 134.774154-60.179692 99.879385 0 181.169231 81.289846 181.16923 181.16923s-81.289846 181.169231-181.16923 181.169231z m0-315.076923c-37.966769 0-74.279385 16.226462-99.643077 44.504615A133.159385 133.159385 0 0 0 543.630769 624.088615c0 7.640615 0.630154 15.281231 1.890462 22.764308 6.774154 39.699692 30.877538 73.885538 66.008615 93.814154 20.007385 11.342769 42.771692 17.329231 65.929846 17.329231 73.806769 0 133.907692-60.100923 133.907693-133.907693s-60.022154-133.907692-133.828923-133.907692z" fill="#FFFFFF" p-id="8445"></path><path d="M441.230769 803.446154c-125.164308 0-259.938462-32.059077-259.938461-102.4V322.953846h47.261538v378.092308c0 15.990154 74.515692 55.138462 212.676923 55.138461 37.179077 0 73.255385-2.993231 105.393231-8.585846a180.602092 180.602092 0 0 1-47.655385-94.601846A181.720615 181.720615 0 0 1 496.369231 622.276923c0-44.740923 16.462769-87.748923 46.395077-121.068308 28.987077-32.295385 68.608-52.932923 111.143384-58.604307V322.953846h47.261539v141.784616c0 13.075692-10.555077 23.630769-23.630769 23.630769-37.966769 0-74.279385 16.226462-99.643077 44.425846A133.655631 133.655631 0 0 0 543.630769 622.276923c0 7.640615 0.630154 15.281231 1.890462 22.764308a133.513846 133.513846 0 0 0 66.008615 93.814154c8.192 4.647385 12.839385 13.784615 11.815385 23.158153a23.615015 23.615015 0 0 1-16.620308 20.007385C561.038769 795.805538 502.276923 803.446154 441.230769 803.446154z" fill="#FFFFFF" p-id="8446"></path><path d="M441.230769 425.353846c-125.164308 0-259.938462-32.059077-259.938461-102.4s134.774154-102.4 259.938461-102.4 259.938462 32.059077 259.938462 102.4-134.774154 102.4-259.938462 102.4z m0-157.538461c-138.161231 0-212.676923 39.148308-212.676923 55.138461s74.515692 55.138462 212.676923 55.138462 212.676923-39.148308 212.676923-55.138462-74.515692-55.138462-212.676923-55.138461z" fill="#FFFFFF" p-id="8447"></path><path d="M441.230769 677.415385c-125.164308 0-259.938462-32.059077-259.938461-102.4h47.261538c0 15.990154 74.515692 55.138462 212.676923 55.138461 26.860308 0 53.169231-1.575385 78.217846-4.568615l5.671385 46.946461c-26.860308 3.229538-55.138462 4.883692-83.889231 4.883693z" fill="#FFFFFF" p-id="8448"></path><path d="M441.230769 551.384615c-125.164308 0-259.938462-32.059077-259.938461-102.4h47.261538c0 15.990154 74.515692 55.138462 212.676923 55.138462 40.408615 0 80.029538-3.544615 114.530462-10.24l9.058461 46.395077C527.325538 547.524923 484.632615 551.384615 441.230769 551.384615z" fill="#FFFFFF" p-id="8449"></path></svg>