<?xml version="1.0" standalone="no"?><!DOCTYPE svg PUBLIC "-//W3C//DTD SVG 1.1//EN" "http://www.w3.org/Graphics/SVG/1.1/DTD/svg11.dtd"><svg t="1741831720012" class="icon" viewBox="0 0 1024 1024" version="1.1" xmlns="http://www.w3.org/2000/svg" p-id="8300" xmlns:xlink="http://www.w3.org/1999/xlink" width="200" height="200"><path d="M367.689143 749.933714l4.022857 5.229715c-36.059429-25.161143-74.898286-71.68-87.990857-91.574858-10.24-15.762286-22.966857-39.862857-38.290286-72.411428a129.828571 129.828571 0 0 0-2.852571 28.16c0 20.114286-1.828571 35.254857-5.668572 45.714286-5.302857 14.006857-15.652571 22.016-29.403428 19.638857l-2.852572-0.804572c-29.037714-12.068571-49.846857-40.594286-63.158857-84.845714-10.934857-40.374857-10.678857-83.017143 0.438857-127.890286 6.912-32 7.241143-54.857143 1.792-67.803428-18.651429-23.332571-33.865143-53.723429-45.970285-91.209143-16.384-50.980571-27.392-71.058286-54.345143-101.814857C20.48 184.246857 7.497143 166.509714 2.157714 149.833143c-4.644571-14.372571-2.048-27.318857 10.349715-34.706286 10.825143-6.436571 27.318857-6.985143 51.565714-2.450286 23.881143 5.632 42.057143 13.275429 59.245714 23.771429 6.290286 3.876571 24.210286 16.091429 24.027429 16.091429 12.141714 7.862857 21.065143 11.593143 33.755428 12.982857l7.168 0.731428 7.058286 0.804572c10.788571 1.170286 17.517714 1.938286 24.576 3.035428 34.377143 5.010286 63.378286 14.555429 103.058286 35.730286 74.642286 39.753143 150.966857 113.554286 201.069714 203.958857 11.337143 20.48 20.553143 41.069714 29.366857 64.292572 5.266286 13.970286 10.24 28.086857 14.848 42.313142l4.388572 12.690286c8.448 23.954286 14.994286 38.509714 23.296 50.285714a73.508571 73.508571 0 0 0 36.864 28.123429c79.104 28.598857 117.613714 50.102857 163.620571 94.866286 8.777143 8.411429 14.482286 15.104 17.481143 20.992 4.534857 8.704 4.169143 17.773714-3.145143 24.137143-4.717714 4.096-10.605714 5.741714-18.944 6.546285-4.937143 0.365714-9.216 0.512-21.869714 0.512-18.212571 0-24.539429 0.073143-32.621715 0.621715a248.502857 248.502857 0 0 0-37.668571 5.924571l-15.286857 3.291429c2.669714 2.742857 6.326857 6.034286 11.044571 10.130285 15.616 13.531429 50.505143 42.093714 87.588572 61.44 48.384 25.307429 67.218286 34.267429 119.442285 51.090286l-8.265142-1.426286c40.521143 8.411429 83.785143 12.507429 129.828571 12.361143-112.420571 13.897143-220.452571 10.24-324.096-11.044571-141.348571-29.001143-280.502857-97.755429-332.251429-136.996572h0.036572zM172.836571 238.116571l52.918858 77.970286c9.435429-10.24 14.592-23.661714 14.372571-37.558857 0-27.648-18.944-50.066286-42.313143-50.066286a38.034286 38.034286 0 0 0-24.978286 9.654857z" fill="#1990FF" p-id="8301"></path></svg>