<?xml version="1.0" standalone="no"?><!DOCTYPE svg PUBLIC "-//W3C//DTD SVG 1.1//EN" "http://www.w3.org/Graphics/SVG/1.1/DTD/svg11.dtd"><svg t="1741832534694" class="icon" viewBox="0 0 1024 1024" version="1.1" xmlns="http://www.w3.org/2000/svg" p-id="14260" xmlns:xlink="http://www.w3.org/1999/xlink" width="200" height="200"><path d="M758.398197 745.444815c6.513477-54.262116 4.561503-62.219456 44.978169-53.429826l10.261083 0.901265c31.07754 1.413974 71.731018-4.998341 95.614534-16.094013 51.413476-23.855926 81.900135-63.68631 31.203993-53.220604-115.640085 23.855926-123.590528-15.300809-123.590528-15.300808 122.109878-181.179506 173.155491-411.169856 129.094681-467.466715-120.176298-153.557581-328.198319-80.943691-331.679225-79.058393l-1.108187 0.204624c-22.848901-4.740837-48.419989-7.573383-77.145504-8.03781-52.330834-0.85988-92.039364 13.718997-122.16046 36.565598 0 0-371.100361-152.88853-353.836083 192.27288 3.671734 73.425488 105.247951 555.599832 226.396787 409.960506 44.279229-53.255091 87.070912-98.283841 87.070912-98.283841 21.248696 14.116749 46.688733 21.31767 73.370308 18.731133l2.062333-1.758846c-0.64606 6.61234-0.360966 13.079835 0.825393 20.735987-31.203993 34.871129-22.035004 40.993751-84.431494 53.836774-63.127618 13.01086-26.040114 36.174744-1.832418 42.228392 29.355481 7.341169 97.26532 17.740201 143.163147-46.497904l-1.82782 7.329673c12.242946 9.794357 11.415254 70.397514 13.151108 113.697308 1.738153 43.302093 4.637375 83.709562 13.463792 107.533301 8.826417 23.81914 19.241543 85.183314 101.245139 67.608651 68.535207-14.686937 120.935015-35.825274 125.71034-232.459631" fill="#000000" p-id="14261"></path><path d="M940.467472 623.597039c-115.651581 23.855926-123.602023-15.300809-123.602024-15.300809 122.109878-181.191002 173.155491-411.18595 129.103877-467.475911-120.176298-153.548384-328.207516-80.929896-331.679224-79.044598l-1.117384 0.200026c-22.848901-4.743136-48.419989-7.568785-77.159299-8.03781-52.330834-0.857581-92.025569 13.718997-122.146665 36.561 0 0-371.107258-152.881632-353.847578 192.277478 3.671734 73.430086 105.245651 555.60443 226.399085 409.965104 44.281528-53.255091 87.066314-98.283841 87.066314-98.283841 21.250995 14.116749 46.691032 21.31767 73.361112 18.731133l2.071529-1.758846c-0.643761 6.61234-0.34947 13.079835 0.829991 20.735987-31.21089 34.871129-22.039602 40.993751-84.431493 53.836774-63.132217 13.01086-26.044712 36.174744-1.83012 42.228392 29.355481 7.341169 97.269918 17.740201 143.158549-46.497904l-1.830119 7.329673c12.229151 9.794357 20.816457 63.711601 19.377192 112.586821-1.439265 48.877519-2.400307 82.433537 7.235409 108.643788 9.635716 26.210251 19.239244 85.183314 101.258934 67.608651 68.535207-14.686937 104.050096-52.74698 108.990959-116.233264 3.506196-45.134511 11.440544-38.462393 11.941758-78.814683l6.364032-19.103594c7.33887-61.182542 1.165666-80.9207 43.389461-71.740215l10.261083 0.901265c31.07754 1.413974 71.75171-4.998341 95.62373-16.094014 51.404279-23.855926 81.890939-63.68631 31.206293-53.220603z" fill="#336791" p-id="14262"></path><path d="M411.944668 325.788815c-0.662154 4.687956 8.582707 17.197603 20.637123 18.869082 12.033724 1.678376 22.333892-8.097588 22.98685-12.780946 0.652957-4.687956-8.580408-9.851835-20.639423-11.530211-12.040621-1.680675-22.345388 0.765615-22.982251 5.442075z" fill="#FFFFFF" p-id="14263"></path><path d="M778.483525 316.231271c0.652957 4.687956-8.580408 17.197603-20.637123 18.869081-12.04292 1.678376-22.343089-8.097588-23.002944-12.780946-0.636863-4.687956 8.598801-9.851835 20.644021-11.530211 12.04522-1.678376 22.343089 0.765615 22.996046 5.444375z" fill="#FFFFFF" p-id="14264"></path></svg>