<?xml version="1.0" standalone="no"?><!DOCTYPE svg PUBLIC "-//W3C//DTD SVG 1.1//EN" "http://www.w3.org/Graphics/SVG/1.1/DTD/svg11.dtd"><svg t="1742440555546" class="icon" viewBox="0 0 1024 1024" version="1.1" xmlns="http://www.w3.org/2000/svg" p-id="33058" xmlns:xlink="http://www.w3.org/1999/xlink" width="200" height="200"><path d="M512 512m-512 0a512 512 0 1 0 1024 0 512 512 0 1 0-1024 0Z" fill="#26bda9" p-id="33059" data-spm-anchor-id="a313x.search_index.0.i6.4f753a814Imccn" class="selected"></path><path d="M492.885333 802.133333l-3.242666-0.170666-7.099734-1.3312h-2.6624l-3.584-1.774934c-10.5472-5.256533-16.861867-16.1792-18.158933-27.4432l-0.238933-4.1984v-155.477333l-162.2016-232.994133c-5.905067-11.810133-7.9872-22.084267-2.730667-33.5872l2.321067-4.369067c5.666133-8.533333 15.086933-14.779733 25.873066-16.213333l4.7104-0.3072h407.04c13.7216 0 25.634133 6.3488 31.6416 18.363733a35.498667 35.498667 0 0 1-0.6144 31.6416l-2.048 3.4816-159.5392 233.847467v118.3744c0 13.141333-5.870933 24.234667-16.247466 29.934933l-3.618134 1.706667-74.5472 37.205333a29.5936 29.5936 0 0 1-12.526933 3.2768l-2.56 0.034133z m240.7424-443.460266l0.068267-0.3072-407.825067 0.034133c-0.682667 0-1.706667 0.648533-1.774933 0.682667l0.887467 2.286933 167.048533 239.650133 0.034133 166.741334 1.2288 0.238933 75.025067-37.410133-0.068267-0.6144V601.088l165.376-242.449067z" fill="#FFFFFF" p-id="33060"></path></svg>