<?xml version="1.0" standalone="no"?><!DOCTYPE svg PUBLIC "-//W3C//DTD SVG 1.1//EN" "http://www.w3.org/Graphics/SVG/1.1/DTD/svg11.dtd"><svg t="1742357439299" class="icon" viewBox="0 0 1024 1024" version="1.1" xmlns="http://www.w3.org/2000/svg" p-id="13126" xmlns:xlink="http://www.w3.org/1999/xlink" width="200" height="200"><path d="M810.666667 128H213.333333c-46.933333 0-85.333333 38.4-85.333333 85.333333v597.333334c0 46.933333 38.4 85.333333 85.333333 85.333333h597.333334c46.933333 0 85.333333-38.4 85.333333-85.333333V213.333333c0-46.933333-38.4-85.333333-85.333333-85.333333z m-234.666667 170.666667v117.333333h-138.666667V298.666667H576z m-138.666667 320v-117.333334H576V618.666667h-138.666667z m138.666667 85.333333v106.666667h-138.666667v-106.666667H576zM213.333333 298.666667h138.666667v117.333333H213.333333V298.666667z m0 202.666666h138.666667V618.666667H213.333333v-117.333334zM213.333333 768v-64h138.666667v106.666667H256c-23.466667 0-42.666667-19.2-42.666667-42.666667z m597.333334 0c0 23.466667-19.2 42.666667-42.666667 42.666667h-106.666667v-106.666667h149.333334v64z m0-149.333333h-149.333334v-117.333334h149.333334V618.666667z m-149.333334-202.666667V298.666667h149.333334v117.333333h-149.333334z" fill="#297AFF" p-id="13127"></path></svg>